<svg width="379" height="23" viewBox="0 0 379 23" fill="none" xmlns="http://www.w3.org/2000/svg">
<path d="M0.536 23V0.599998H12.216V4.44H4.92V10.04H11.256V13.752H4.92V23H0.536ZM27.7695 23L27.0975 19.448H22.0415L21.3695 23H17.0175L21.3375 0.599998H27.9615L32.0575 23H27.7695ZM24.5055 4.76L23.2575 12.216L22.5535 16.024H26.5535L25.8175 12.216L24.5695 4.76H24.5055ZM39.681 23V0.599998H44.065V23H39.681ZM52.9097 0.599998H61.4217C62.7657 1.048 63.9071 1.88 64.8457 3.096C65.8057 4.29067 66.2857 5.76267 66.2857 7.512C66.2857 10.3707 65.1551 12.472 62.8937 13.816L66.1257 23H61.6457L58.9257 14.84H57.2297V23H52.9097V0.599998ZM57.2297 4.44V11.256H59.9817C60.3444 11.1707 60.7391 10.808 61.1657 10.168C61.6137 9.50667 61.8377 8.73867 61.8377 7.864C61.8377 6.98933 61.6457 6.22133 61.2617 5.56C60.8991 4.89867 60.5364 4.52533 60.1737 4.44H57.2297ZM94.7783 23L94.1063 19.448H89.0503L88.3783 23H84.0263L88.3463 0.599998H94.9703L99.0663 23H94.7783ZM91.5143 4.76L90.2663 12.216L89.5623 16.024H93.5623L92.8263 12.216L91.5783 4.76H91.5143ZM119.136 0.599998L114.592 23H108.576L104.032 0.599998H108.64L110.4 10.968L111.488 17.688H111.68L112.768 10.968L114.528 0.599998H119.136ZM126.606 23V0.599998H138.094V4.44H130.99V9.784H137.326V13.496H130.99V19.288H138.222V23H126.606ZM156.444 23L150.46 10.616L150.3 10.68L150.492 14.456V23H146.46V0.599998H149.692L155.58 13.464L155.74 13.4L155.388 9.464V0.599998H159.42V23H156.444ZM173.787 19.288H176.475C176.944 18.776 177.275 18.264 177.467 17.752C177.68 17.2187 177.787 16.44 177.787 15.416V0.599998H182.171V13.816C182.171 14.904 182.139 15.7573 182.075 16.376C182.032 16.9733 181.904 17.7093 181.691 18.584C181.328 20.1413 180.326 21.6133 178.683 23H171.579C169.936 21.656 168.934 20.184 168.571 18.584C168.251 17.2827 168.091 15.6933 168.091 13.816V0.599998H172.475V15.416C172.475 16.44 172.571 17.2187 172.763 17.752C172.976 18.264 173.318 18.776 173.787 19.288ZM190.855 23V0.599998H202.343V4.44H195.239V9.784H201.575V13.496H195.239V19.288H202.471V23H190.855ZM235.321 0.599998L230.777 23H224.761L220.217 0.599998H224.825L226.585 10.968L227.673 17.688H227.865L228.953 10.968L230.713 0.599998H235.321ZM242.791 23V0.599998H254.279V4.44H247.175V9.784H253.511V13.496H247.175V19.288H254.407V23H242.791ZM272.629 23L266.645 10.616L266.485 10.68L266.677 14.456V23H262.645V0.599998H265.877L271.765 13.464L271.925 13.4L271.573 9.464V0.599998H275.605V23H272.629ZM288.052 4.44H283.22V0.599998H297.236V4.44H292.404V23H288.052V4.44ZM310.388 19.288H313.076C313.546 18.776 313.876 18.264 314.068 17.752C314.282 17.2187 314.388 16.44 314.388 15.416V0.599998H318.772V13.816C318.772 14.904 318.74 15.7573 318.676 16.376C318.634 16.9733 318.506 17.7093 318.292 18.584C317.93 20.1413 316.927 21.6133 315.284 23H308.18C306.538 21.656 305.535 20.184 305.172 18.584C304.852 17.2827 304.692 15.6933 304.692 13.816V0.599998H309.076V15.416C309.076 16.44 309.172 17.2187 309.364 17.752C309.578 18.264 309.919 18.776 310.388 19.288ZM327.456 0.599998H335.968C337.312 1.048 338.453 1.88 339.392 3.096C340.352 4.29067 340.832 5.76267 340.832 7.512C340.832 10.3707 339.701 12.472 337.44 13.816L340.672 23H336.192L333.472 14.84H331.776V23H327.456V0.599998ZM331.776 4.44V11.256H334.528C334.891 11.1707 335.285 10.808 335.712 10.168C336.16 9.50667 336.384 8.73867 336.384 7.864C336.384 6.98933 336.192 6.22133 335.808 5.56C335.445 4.89867 335.083 4.52533 334.72 4.44H331.776ZM348.903 23V0.599998H360.391V4.44H353.287V9.784H359.623V13.496H353.287V19.288H360.519V23H348.903ZM370.493 0.599998H378.173V4.44H372.029L371.933 4.632L377.053 13.976C378.098 15.8533 378.621 17.2827 378.621 18.264C378.621 20.4187 377.906 21.9973 376.477 23H367.997V19.288H374.621L374.717 19.096L368.957 8.76C368.125 7.26667 367.709 6.05067 367.709 5.112C367.709 2.89333 368.637 1.38933 370.493 0.599998Z" fill="black"/>
</svg>
